<svg xmlns="http://www.w3.org/2000/svg" width="1440" height="400" fill="none"><g clip-path="url(#a)"><mask id="b" width="1920" height="400" x="0" y="0" maskUnits="userSpaceOnUse" style="mask-type:luminance"><path fill="#fff" d="M1920 0H0v400h1920V0Z"/></mask><g mask="url(#b)"><path fill="#199BD7" d="M1920 0H0v400h1920V0Z"/><mask id="c" width="3565" height="2018" x="-512" y="-1144" maskUnits="userSpaceOnUse" style="mask-type:luminance"><path fill="#fff" d="M3052.06-1143.39H-511.941V873.39H3052.06v-2016.78Z"/></mask><g mask="url(#c)"><path fill="#32BCFF" d="M2984.14-1108.91c-72.96-55.08-176.44-43.03-234.74 27.62l-621.35 747.632C1887.21-1165.97 1000.9-1154.84 625.742-732.499 619.179-724.717-472.716 593.715-472.716 593.715c-56.014 67.592-51.588 166.769 10.226 229.173 71.124 71.712 188.8 66.372 253.056-11.596 0 0 897.753-1097.04 1031.913-1251.908 134.312-154.867 246.491-240.616 450.561-240.616 310.59 0 542.13 252.67 542.13 541.959s-230.32 541.96-542.13 541.96c-262.37 0-421.562-189.808-439.725-206.897-68.682-64.388-170.79-56.454-229.551 1.678-55.404 54.929-67.767 148.154-11.447 218.951 34.036 42.874 266.487 322.093 692.323 322.093 319.6 0 566.7-187.214 749.39-406.622 229.4-275.557 978.8-1195.454 978.8-1195.454 62.12-74.916 49-186.606-28.69-245.196v-.15Z"/></g></g></g><defs><clipPath id="a"><path fill="#fff" d="M0 0h1440v400H0z"/></clipPath></defs></svg>
